<svg width="114" height="24" viewBox="0 0 114 24" fill="none" xmlns="http://www.w3.org/2000/svg">
<path d="M40.8184 11.709V12.3379C40.8184 13.0853 40.7249 13.7552 40.5381 14.3477C40.3512 14.9401 40.0824 15.4437 39.7314 15.8584C39.3805 16.2731 38.959 16.5898 38.4668 16.8086C37.9792 17.0273 37.4323 17.1367 36.8262 17.1367C36.2383 17.1367 35.6982 17.0273 35.2061 16.8086C34.7184 16.5898 34.2946 16.2731 33.9346 15.8584C33.5791 15.4437 33.3034 14.9401 33.1074 14.3477C32.9115 13.7552 32.8135 13.0853 32.8135 12.3379V11.709C32.8135 10.9616 32.9092 10.2939 33.1006 9.70605C33.2965 9.11361 33.5723 8.61003 33.9277 8.19531C34.2832 7.77604 34.7048 7.45703 35.1924 7.23828C35.6846 7.01953 36.2246 6.91016 36.8125 6.91016C37.4186 6.91016 37.9655 7.01953 38.4531 7.23828C38.9453 7.45703 39.3669 7.77604 39.7178 8.19531C40.0732 8.61003 40.3444 9.11361 40.5312 9.70605C40.7227 10.2939 40.8184 10.9616 40.8184 11.709ZM39.5127 12.3379V11.6953C39.5127 11.1029 39.4512 10.5788 39.3281 10.123C39.2096 9.66732 39.0342 9.28451 38.8018 8.97461C38.5693 8.66471 38.2845 8.43001 37.9473 8.27051C37.6146 8.111 37.2363 8.03125 36.8125 8.03125C36.4023 8.03125 36.0309 8.111 35.6982 8.27051C35.3701 8.43001 35.0876 8.66471 34.8506 8.97461C34.6182 9.28451 34.4382 9.66732 34.3105 10.123C34.1829 10.5788 34.1191 11.1029 34.1191 11.6953V12.3379C34.1191 12.9349 34.1829 13.4635 34.3105 13.9238C34.4382 14.3796 34.6204 14.7646 34.8574 15.0791C35.099 15.389 35.3838 15.6237 35.7119 15.7832C36.0446 15.9427 36.416 16.0225 36.8262 16.0225C37.2546 16.0225 37.6351 15.9427 37.9678 15.7832C38.3005 15.6237 38.5807 15.389 38.8086 15.0791C39.041 14.7646 39.2165 14.3796 39.335 13.9238C39.4535 13.4635 39.5127 12.9349 39.5127 12.3379ZM47.3467 6.38379H48.3857C48.3857 6.8304 48.3174 7.18587 48.1807 7.4502C48.0439 7.70996 47.8571 7.91048 47.6201 8.05176C47.3877 8.19303 47.1234 8.30013 46.8271 8.37305C46.5355 8.44596 46.2324 8.5166 45.918 8.58496C45.526 8.66699 45.1615 8.79688 44.8242 8.97461C44.4915 9.14779 44.2044 9.39388 43.9629 9.71289C43.7259 10.0319 43.5505 10.4466 43.4365 10.957C43.3271 11.4674 43.2975 12.0986 43.3477 12.8506V13.4795H42.3086V12.8506C42.3086 12.0075 42.3883 11.2715 42.5479 10.6426C42.7119 10.0137 42.9421 9.48275 43.2383 9.0498C43.5345 8.61686 43.8854 8.27279 44.291 8.01758C44.7012 7.76237 45.1523 7.58691 45.6445 7.49121C46 7.42285 46.3053 7.34993 46.5605 7.27246C46.8158 7.19043 47.0094 7.08105 47.1416 6.94434C47.2783 6.80762 47.3467 6.62077 47.3467 6.38379ZM45.8496 10.0273C46.3327 10.0273 46.7633 10.1117 47.1416 10.2803C47.5199 10.4489 47.8411 10.6836 48.1055 10.9844C48.3698 11.2852 48.5703 11.6406 48.707 12.0508C48.8483 12.4564 48.9189 12.8984 48.9189 13.377V13.5273C48.9189 14.0423 48.8438 14.5208 48.6934 14.9629C48.5475 15.4004 48.3311 15.7832 48.0439 16.1113C47.7614 16.4349 47.415 16.6878 47.0049 16.8701C46.5993 17.0524 46.1367 17.1436 45.6172 17.1436C45.0977 17.1436 44.6328 17.0524 44.2227 16.8701C43.8171 16.6878 43.4707 16.4349 43.1836 16.1113C42.8965 15.7832 42.6777 15.4004 42.5273 14.9629C42.3815 14.5208 42.3086 14.0423 42.3086 13.5273V13.377C42.3086 13.263 42.3291 13.1514 42.3701 13.042C42.4111 12.9326 42.4613 12.821 42.5205 12.707C42.5843 12.5931 42.6413 12.4723 42.6914 12.3447C42.86 11.9346 43.0902 11.554 43.3818 11.2031C43.6781 10.8522 44.0312 10.5697 44.4414 10.3555C44.8561 10.1367 45.3255 10.0273 45.8496 10.0273ZM45.6035 11.0596C45.1387 11.0596 44.7559 11.1667 44.4551 11.3809C44.1589 11.5951 43.9378 11.8799 43.792 12.2354C43.6462 12.5863 43.5732 12.9668 43.5732 13.377V13.5273C43.5732 13.8737 43.6143 14.2018 43.6963 14.5117C43.7783 14.8216 43.9014 15.0973 44.0654 15.3389C44.234 15.5758 44.446 15.7627 44.7012 15.8994C44.9609 16.0361 45.2663 16.1045 45.6172 16.1045C45.9681 16.1045 46.2712 16.0361 46.5264 15.8994C46.7816 15.7627 46.9912 15.5758 47.1553 15.3389C47.3193 15.0973 47.4424 14.8216 47.5244 14.5117C47.6064 14.2018 47.6475 13.8737 47.6475 13.5273V13.377C47.6475 13.0671 47.6064 12.7731 47.5244 12.4951C47.4424 12.2171 47.3171 11.971 47.1484 11.7568C46.9844 11.5426 46.7725 11.374 46.5127 11.251C46.2575 11.1234 45.9544 11.0596 45.6035 11.0596ZM52.8428 9.60352V10.6426H49.5957V9.60352H52.8428ZM52.7197 12.1465H54.9414C55.5384 12.1465 56.042 12.2513 56.4521 12.4609C56.8623 12.666 57.1722 12.9508 57.3818 13.3154C57.596 13.6755 57.7031 14.0856 57.7031 14.5459C57.7031 14.8877 57.6439 15.209 57.5254 15.5098C57.4069 15.806 57.2292 16.0658 56.9922 16.2891C56.7598 16.5124 56.4704 16.6878 56.124 16.8154C55.7822 16.9385 55.388 17 54.9414 17H51.79V9.60352H53.0615V15.9609H54.9414C55.306 15.9609 55.5954 15.8949 55.8096 15.7627C56.0283 15.6305 56.1855 15.4596 56.2812 15.25C56.377 15.0404 56.4248 14.8216 56.4248 14.5938C56.4248 14.3704 56.377 14.1517 56.2812 13.9375C56.1855 13.7233 56.0283 13.5456 55.8096 13.4043C55.5954 13.2585 55.306 13.1855 54.9414 13.1855H52.7197V12.1465ZM60.5469 13.4727H61.9141L59.7744 17H58.4072L60.5469 13.4727ZM61.6064 9.60352H64.6963V17H63.4316V10.6289H61.6064C61.2464 10.6289 60.9525 10.6904 60.7246 10.8135C60.4967 10.932 60.3304 11.0869 60.2256 11.2783C60.1208 11.4697 60.0684 11.668 60.0684 11.873C60.0684 12.0736 60.1162 12.2673 60.2119 12.4541C60.3076 12.6364 60.458 12.7868 60.6631 12.9053C60.8682 13.0238 61.1325 13.083 61.4561 13.083H63.7734V14.1221H61.4561C61.0322 14.1221 60.6562 14.0651 60.3281 13.9512C60 13.8372 59.722 13.68 59.4941 13.4795C59.2663 13.2744 59.0931 13.0352 58.9746 12.7617C58.8561 12.4837 58.7969 12.1829 58.7969 11.8594C58.7969 11.5358 58.8584 11.2373 58.9814 10.9639C59.109 10.6904 59.2913 10.4512 59.5283 10.2461C59.7699 10.041 60.0638 9.88379 60.4102 9.77441C60.7611 9.66048 61.1598 9.60352 61.6064 9.60352ZM70.2061 13.7461H67.7793L67.7656 12.7344H69.748C70.14 12.7344 70.4658 12.6956 70.7256 12.6182C70.9899 12.5407 71.1882 12.4245 71.3203 12.2695C71.4525 12.1146 71.5186 11.9232 71.5186 11.6953C71.5186 11.5176 71.4798 11.3626 71.4023 11.2305C71.3294 11.0938 71.2178 10.9821 71.0674 10.8955C70.917 10.8044 70.7301 10.7383 70.5068 10.6973C70.2881 10.6517 70.0306 10.6289 69.7344 10.6289H68.1143V17H66.8496V9.60352H69.7344C70.2038 9.60352 70.6253 9.64453 70.999 9.72656C71.3773 9.80859 71.6986 9.93392 71.9629 10.1025C72.2318 10.2666 72.4368 10.4762 72.5781 10.7314C72.7194 10.9867 72.79 11.2874 72.79 11.6338C72.79 11.8571 72.7445 12.069 72.6533 12.2695C72.5622 12.4701 72.4277 12.6478 72.25 12.8027C72.0723 12.9577 71.8535 13.0853 71.5938 13.1855C71.334 13.2812 71.0355 13.3428 70.6982 13.3701L70.2061 13.7461ZM70.2061 17H67.3213L67.9502 15.9746H70.2061C70.557 15.9746 70.8486 15.9313 71.0811 15.8447C71.3135 15.7536 71.4867 15.626 71.6006 15.4619C71.7191 15.2933 71.7783 15.0928 71.7783 14.8604C71.7783 14.6279 71.7191 14.4297 71.6006 14.2656C71.4867 14.097 71.3135 13.9694 71.0811 13.8828C70.8486 13.7917 70.557 13.7461 70.2061 13.7461H68.2852L68.2988 12.7344H70.6982L71.1562 13.1172C71.5618 13.1491 71.9059 13.2493 72.1885 13.418C72.471 13.5866 72.6852 13.8008 72.8311 14.0605C72.9769 14.3158 73.0498 14.5938 73.0498 14.8945C73.0498 15.2409 72.9837 15.5462 72.8516 15.8105C72.724 16.0749 72.5371 16.2959 72.291 16.4736C72.0449 16.6468 71.7464 16.779 71.3955 16.8701C71.0446 16.9567 70.6481 17 70.2061 17ZM79.6875 9.60352V10.6494H76.1123V9.60352H79.6875ZM80.8018 9.60352V17H79.5371V9.60352H80.8018ZM75.8047 9.60352H77.0762L76.8848 13.1719C76.8529 13.7233 76.8005 14.2109 76.7275 14.6348C76.6592 15.054 76.5635 15.4141 76.4404 15.7148C76.3219 16.0156 76.1715 16.2617 75.9893 16.4531C75.8115 16.64 75.5973 16.779 75.3467 16.8701C75.096 16.9567 74.8066 17 74.4785 17H74.082V15.8857L74.3555 15.8652C74.5514 15.8516 74.7178 15.806 74.8545 15.7285C74.9958 15.651 75.1143 15.5371 75.21 15.3867C75.3057 15.2318 75.3831 15.0335 75.4424 14.792C75.5062 14.5505 75.554 14.2633 75.5859 13.9307C75.6224 13.598 75.6497 13.2106 75.668 12.7686L75.8047 9.60352ZM85.9082 17.1367C85.3932 17.1367 84.9261 17.0501 84.5068 16.877C84.0921 16.6992 83.7344 16.4508 83.4336 16.1318C83.1374 15.8128 82.9095 15.4346 82.75 14.9971C82.5905 14.5596 82.5107 14.0811 82.5107 13.5615V13.2744C82.5107 12.6729 82.5996 12.1374 82.7773 11.668C82.9551 11.194 83.1966 10.793 83.502 10.4648C83.8073 10.1367 84.1536 9.88835 84.541 9.71973C84.9284 9.55111 85.3294 9.4668 85.7441 9.4668C86.2728 9.4668 86.7285 9.55794 87.1113 9.74023C87.4987 9.92253 87.8154 10.1777 88.0615 10.5059C88.3076 10.8294 88.4899 11.2122 88.6084 11.6543C88.7269 12.0918 88.7861 12.5703 88.7861 13.0898V13.6572H83.2627V12.625H87.5215V12.5293C87.5033 12.2012 87.4349 11.8822 87.3164 11.5723C87.2025 11.2624 87.0202 11.0072 86.7695 10.8066C86.5189 10.6061 86.1771 10.5059 85.7441 10.5059C85.457 10.5059 85.1927 10.5674 84.9512 10.6904C84.7096 10.8089 84.5023 10.9867 84.3291 11.2236C84.1559 11.4606 84.0215 11.75 83.9258 12.0918C83.8301 12.4336 83.7822 12.8278 83.7822 13.2744V13.5615C83.7822 13.9124 83.8301 14.2428 83.9258 14.5527C84.026 14.8581 84.1696 15.127 84.3564 15.3594C84.5479 15.5918 84.778 15.7741 85.0469 15.9062C85.3203 16.0384 85.6302 16.1045 85.9766 16.1045C86.4232 16.1045 86.8014 16.0133 87.1113 15.8311C87.4212 15.6488 87.6924 15.4049 87.9248 15.0996L88.6904 15.708C88.5309 15.9495 88.3281 16.1797 88.082 16.3984C87.8359 16.6172 87.5329 16.7949 87.1729 16.9316C86.8174 17.0684 86.3958 17.1367 85.9082 17.1367ZM95.2803 12.8096V13.835H91.3701V12.8096H95.2803ZM91.6367 9.60352V17H90.3721V9.60352H91.6367ZM96.3057 9.60352V17H95.0342V9.60352H96.3057ZM99.71 14.9971L103.121 9.60352H104.393V17H103.121V11.6064L99.71 17H98.4521V9.60352H99.71V14.9971ZM107.92 13.4727H109.287L107.147 17H105.78L107.92 13.4727ZM108.979 9.60352H112.069V17H110.805V10.6289H108.979C108.619 10.6289 108.326 10.6904 108.098 10.8135C107.87 10.932 107.703 11.0869 107.599 11.2783C107.494 11.4697 107.441 11.668 107.441 11.873C107.441 12.0736 107.489 12.2673 107.585 12.4541C107.681 12.6364 107.831 12.7868 108.036 12.9053C108.241 13.0238 108.506 13.083 108.829 13.083H111.146V14.1221H108.829C108.405 14.1221 108.029 14.0651 107.701 13.9512C107.373 13.8372 107.095 13.68 106.867 13.4795C106.639 13.2744 106.466 13.0352 106.348 12.7617C106.229 12.4837 106.17 12.1829 106.17 11.8594C106.17 11.5358 106.231 11.2373 106.354 10.9639C106.482 10.6904 106.664 10.4512 106.901 10.2461C107.143 10.041 107.437 9.88379 107.783 9.77441C108.134 9.66048 108.533 9.60352 108.979 9.60352Z" fill="#1E3DAF"/>
<path d="M1.66669 4.5H6.66669C7.55074 4.5 8.39859 4.85119 9.02371 5.47631C9.64883 6.10143 10 6.94928 10 7.83333V19.5C10 18.837 9.73663 18.2011 9.26779 17.7322C8.79895 17.2634 8.16306 17 7.50002 17H1.66669V4.5Z" stroke="#1E3DAF" stroke-width="1.5" stroke-linecap="round" stroke-linejoin="round"/>
<path d="M18.3333 4.5H13.3333C12.4493 4.5 11.6014 4.85119 10.9763 5.47631C10.3512 6.10143 10 6.94928 10 7.83333V19.5C10 18.837 10.2634 18.2011 10.7322 17.7322C11.2011 17.2634 11.837 17 12.5 17H18.3333V4.5Z" stroke="#1E3DAF" stroke-width="1.5" stroke-linecap="round" stroke-linejoin="round"/>
</svg>
