<svg width="75" height="24" viewBox="0 0 75 24" fill="none" xmlns="http://www.w3.org/2000/svg">
<path d="M36.7031 12.3447H34.1807L34.167 11.2852H36.457C36.8353 11.2852 37.1657 11.2214 37.4482 11.0938C37.7308 10.9661 37.9495 10.7839 38.1045 10.5469C38.264 10.3053 38.3438 10.0182 38.3438 9.68555C38.3438 9.32096 38.2731 9.02474 38.1318 8.79688C37.9951 8.56445 37.7832 8.39583 37.4961 8.29102C37.2135 8.18164 36.8535 8.12695 36.416 8.12695H34.4746V17H33.1553V7.04688H36.416C36.9264 7.04688 37.3822 7.09928 37.7832 7.2041C38.1842 7.30436 38.5238 7.46387 38.8018 7.68262C39.0843 7.89681 39.2985 8.17025 39.4443 8.50293C39.5902 8.83561 39.6631 9.23438 39.6631 9.69922C39.6631 10.1094 39.5583 10.4808 39.3486 10.8135C39.139 11.1416 38.8473 11.4105 38.4736 11.6201C38.1045 11.8298 37.6715 11.9642 37.1748 12.0234L36.7031 12.3447ZM36.6416 17H33.6611L34.4062 15.9268H36.6416C37.0609 15.9268 37.4163 15.8538 37.708 15.708C38.0042 15.5622 38.2298 15.3571 38.3848 15.0928C38.5397 14.8239 38.6172 14.5072 38.6172 14.1426C38.6172 13.7734 38.5511 13.4544 38.4189 13.1855C38.2868 12.9167 38.0794 12.7093 37.7969 12.5635C37.5143 12.4176 37.1497 12.3447 36.7031 12.3447H34.8232L34.8369 11.2852H37.4072L37.6875 11.668C38.166 11.709 38.5716 11.8457 38.9043 12.0781C39.237 12.306 39.4899 12.5977 39.6631 12.9531C39.8408 13.3086 39.9297 13.7005 39.9297 14.1289C39.9297 14.7487 39.793 15.2728 39.5195 15.7012C39.2507 16.125 38.8701 16.4486 38.3779 16.6719C37.8857 16.8906 37.307 17 36.6416 17ZM42.7256 12.1465H44.9473C45.5443 12.1465 46.0479 12.2513 46.458 12.4609C46.8682 12.666 47.1781 12.9508 47.3877 13.3154C47.6019 13.6755 47.709 14.0856 47.709 14.5459C47.709 14.8877 47.6497 15.209 47.5312 15.5098C47.4128 15.806 47.235 16.0658 46.998 16.2891C46.7656 16.5124 46.4762 16.6878 46.1299 16.8154C45.7881 16.9385 45.3939 17 44.9473 17H41.8027V9.60352H43.0674V15.9609H44.9473C45.3118 15.9609 45.6035 15.8949 45.8223 15.7627C46.041 15.6305 46.1982 15.4596 46.2939 15.25C46.3896 15.0404 46.4375 14.8216 46.4375 14.5938C46.4375 14.3704 46.3896 14.1517 46.2939 13.9375C46.1982 13.7233 46.041 13.5456 45.8223 13.4043C45.6035 13.2585 45.3118 13.1855 44.9473 13.1855H42.7256V12.1465ZM50.3408 9.60352V17H49.0762V9.60352H50.3408ZM53.4102 9.60352L55.0303 12.2969L56.6709 9.60352H58.1543L55.7344 13.2539L58.2295 17H56.7666L55.0576 14.2246L53.3486 17H51.8789L54.3672 13.2539L51.9541 9.60352H53.4102ZM59.0293 13.3838V13.2266C59.0293 12.6934 59.1068 12.1989 59.2617 11.7432C59.4167 11.2829 59.64 10.8841 59.9316 10.5469C60.2233 10.2051 60.5765 9.94076 60.9912 9.75391C61.4059 9.5625 61.8708 9.4668 62.3857 9.4668C62.9053 9.4668 63.3724 9.5625 63.7871 9.75391C64.2064 9.94076 64.5618 10.2051 64.8535 10.5469C65.1497 10.8841 65.3753 11.2829 65.5303 11.7432C65.6852 12.1989 65.7627 12.6934 65.7627 13.2266V13.3838C65.7627 13.917 65.6852 14.4115 65.5303 14.8672C65.3753 15.3229 65.1497 15.7217 64.8535 16.0635C64.5618 16.4007 64.2087 16.665 63.7939 16.8564C63.3838 17.0433 62.9189 17.1367 62.3994 17.1367C61.8799 17.1367 61.4128 17.0433 60.998 16.8564C60.5833 16.665 60.2279 16.4007 59.9316 16.0635C59.64 15.7217 59.4167 15.3229 59.2617 14.8672C59.1068 14.4115 59.0293 13.917 59.0293 13.3838ZM60.2939 13.2266V13.3838C60.2939 13.7529 60.3372 14.1016 60.4238 14.4297C60.5104 14.7533 60.6403 15.0404 60.8135 15.291C60.9912 15.5417 61.2122 15.7399 61.4766 15.8857C61.7409 16.027 62.0485 16.0977 62.3994 16.0977C62.7458 16.0977 63.0488 16.027 63.3086 15.8857C63.5729 15.7399 63.7917 15.5417 63.9648 15.291C64.138 15.0404 64.2679 14.7533 64.3545 14.4297C64.4456 14.1016 64.4912 13.7529 64.4912 13.3838V13.2266C64.4912 12.862 64.4456 12.5179 64.3545 12.1943C64.2679 11.8662 64.1357 11.5768 63.958 11.3262C63.7848 11.071 63.5661 10.8704 63.3018 10.7246C63.042 10.5788 62.7367 10.5059 62.3857 10.5059C62.0394 10.5059 61.734 10.5788 61.4697 10.7246C61.21 10.8704 60.9912 11.071 60.8135 11.3262C60.6403 11.5768 60.5104 11.8662 60.4238 12.1943C60.3372 12.5179 60.2939 12.862 60.2939 13.2266ZM68.1895 9.60352H69.4541L69.3447 12.3721C69.3174 13.0739 69.2376 13.68 69.1055 14.1904C68.9733 14.7008 68.8047 15.1361 68.5996 15.4961C68.3945 15.8516 68.1644 16.1501 67.9092 16.3916C67.6585 16.6331 67.3988 16.8359 67.1299 17H66.501L66.5352 15.9678L66.7949 15.9609C66.9453 15.7832 67.0911 15.6009 67.2324 15.4141C67.3737 15.2227 67.5036 14.9971 67.6221 14.7373C67.7406 14.473 67.8385 14.1517 67.916 13.7734C67.998 13.3906 68.0505 12.9235 68.0732 12.3721L68.1895 9.60352ZM68.5039 9.60352H72.9541V17H71.6895V10.7725H68.5039V9.60352ZM66.2139 15.9609H73.9043V19.1807H72.6396V17H67.4785V19.1807H66.207L66.2139 15.9609Z" fill="#2A2F37"/>
<path d="M15 12.8333V17.8333C15 18.2754 14.8244 18.6993 14.5118 19.0118C14.1993 19.3244 13.7754 19.5 13.3333 19.5H4.16667C3.72464 19.5 3.30072 19.3244 2.98816 19.0118C2.67559 18.6993 2.5 18.2754 2.5 17.8333V8.66667C2.5 8.22464 2.67559 7.80072 2.98816 7.48816C3.30072 7.17559 3.72464 7 4.16667 7H9.16667" stroke="#2A2F37" stroke-width="1.5" stroke-linecap="round" stroke-linejoin="round"/>
<path d="M12.5 4.5H17.5V9.5" stroke="#2A2F37" stroke-width="1.5" stroke-linecap="round" stroke-linejoin="round"/>
<path d="M8.33331 13.6667L17.5 4.5" stroke="#2A2F37" stroke-width="1.5" stroke-linecap="round" stroke-linejoin="round"/>
</svg>
